<svg width="626" height="214" viewBox="0 0 626 214" fill="none" xmlns="http://www.w3.org/2000/svg">
<path d="M129.4 111C128.184 107.352 126.552 102.776 124.504 97.272H93.8804L89.0804 111H64.9844L91.8644 41.304H127.192L154.264 111H129.4ZM119.032 82.296C116.6 75.576 114.104 68.856 111.544 62.136L109.24 55.896C107 61.72 103.704 70.52 99.3524 82.296H119.032ZM180.936 91.608C199.496 91.48 214.856 91.16 227.016 90.648C226.184 93.912 225.672 97.048 225.48 100.056C225.288 103.064 225.192 106.712 225.192 111H157.512C158.024 98.584 158.28 86.968 158.28 76.152C158.28 65.336 158.024 53.72 157.512 41.304H180.936V91.608ZM278.252 41.4C290.988 41.4 299.852 43.672 304.844 48.216C309.836 52.696 312.332 59.032 312.332 67.224C312.332 72.856 311.34 77.656 309.356 81.624C307.372 85.528 303.884 88.6 298.892 90.84C293.9 93.016 287.02 94.104 278.252 94.104H258.284V111H234.668C235.18 98.584 235.436 86.968 235.436 76.152C235.436 65.336 235.18 53.72 234.668 41.304H258.284V41.4H278.252ZM271.532 75.576C276.844 75.576 280.812 75.384 283.436 75C286.124 74.552 287.98 73.784 289.004 72.696C290.092 71.608 290.636 70.008 290.636 67.896C290.636 65.784 290.124 64.216 289.1 63.192C288.14 62.104 286.316 61.368 283.628 60.984C281.004 60.6 276.972 60.408 271.532 60.408H258.284V75.576H271.532ZM375.757 60.408C368.141 60.024 362.509 59.8 358.861 59.736V92.568C362.573 92.504 368.205 92.28 375.757 91.896V111H319.981V91.896C327.341 92.28 332.941 92.504 336.781 92.568V59.736C332.941 59.8 327.341 60.024 319.981 60.408V41.304H375.757V60.408ZM463.993 41.4C463.545 52.216 463.321 63.8 463.321 76.152C463.321 88.568 463.545 100.184 463.993 111H429.625L406.393 58.584L408.121 111H383.449C383.961 98.584 384.217 86.968 384.217 76.152C384.217 65.4 383.961 53.816 383.449 41.4H418.777L442.105 95.256L440.473 41.4H463.993ZM514.388 111.96C499.732 111.96 488.948 108.792 482.036 102.456C475.124 96.056 471.668 87.096 471.668 75.576C471.668 64.184 475.092 55.288 481.94 48.888C488.852 42.488 499.668 39.288 514.388 39.288C529.172 39.288 539.988 42.488 546.836 48.888C553.748 55.288 557.204 64.184 557.204 75.576C557.204 87.16 553.78 96.12 546.932 102.456C540.084 108.792 529.236 111.96 514.388 111.96ZM514.388 92.376C521.492 92.376 526.612 91.032 529.748 88.344C532.884 85.592 534.452 81.336 534.452 75.576C534.452 69.944 532.884 65.752 529.748 63C526.612 60.248 521.492 58.872 514.388 58.872C507.348 58.872 502.26 60.248 499.124 63C495.988 65.752 494.42 69.944 494.42 75.576C494.42 81.272 495.988 85.496 499.124 88.248C502.26 91 507.348 92.376 514.388 92.376Z" fill="white"/>
<path d="M251.05 175.95C253.017 176.317 254.684 177.317 256.05 178.95C257.417 180.583 258.1 182.483 258.1 184.65C258.1 186.417 257.65 188.017 256.75 189.45C255.884 190.85 254.6 191.967 252.9 192.8C251.2 193.6 249.167 194 246.8 194H234.7V159.05H246.45C249.984 159.05 252.667 159.867 254.5 161.5C256.367 163.133 257.3 165.25 257.3 167.85C257.3 170.017 256.717 171.783 255.55 173.15C254.384 174.483 252.884 175.417 251.05 175.95ZM238.2 174.5H246.35C248.717 174.5 250.534 173.95 251.8 172.85C253.1 171.717 253.75 170.167 253.75 168.2C253.75 166.267 253.1 164.75 251.8 163.65C250.534 162.55 248.667 162 246.2 162H238.2V174.5ZM246.55 191.05C249.084 191.05 251.05 190.45 252.45 189.25C253.884 188.05 254.6 186.4 254.6 184.3C254.6 182.2 253.85 180.533 252.35 179.3C250.884 178.033 248.9 177.4 246.4 177.4H238.2V191.05H246.55ZM268.034 159.05V194H264.534V159.05H268.034ZM286.56 194.35C284.26 194.35 282.227 193.95 280.46 193.15C278.727 192.35 277.36 191.233 276.36 189.8C275.36 188.367 274.827 186.767 274.76 185H278.46C278.627 186.7 279.377 188.2 280.71 189.5C282.043 190.767 283.993 191.4 286.56 191.4C288.927 191.4 290.793 190.8 292.16 189.6C293.56 188.367 294.26 186.817 294.26 184.95C294.26 183.45 293.877 182.25 293.11 181.35C292.343 180.417 291.393 179.733 290.26 179.3C289.127 178.833 287.56 178.333 285.56 177.8C283.227 177.167 281.377 176.55 280.01 175.95C278.643 175.35 277.477 174.417 276.51 173.15C275.543 171.883 275.06 170.167 275.06 168C275.06 166.2 275.527 164.6 276.46 163.2C277.393 161.767 278.71 160.65 280.41 159.85C282.11 159.05 284.06 158.65 286.26 158.65C289.493 158.65 292.093 159.45 294.06 161.05C296.06 162.617 297.21 164.65 297.51 167.15H293.71C293.477 165.717 292.693 164.45 291.36 163.35C290.027 162.217 288.227 161.65 285.96 161.65C283.86 161.65 282.11 162.217 280.71 163.35C279.31 164.45 278.61 165.967 278.61 167.9C278.61 169.367 278.993 170.55 279.76 171.45C280.527 172.35 281.477 173.033 282.61 173.5C283.777 173.967 285.343 174.467 287.31 175C289.577 175.633 291.41 176.267 292.81 176.9C294.21 177.5 295.393 178.433 296.36 179.7C297.327 180.967 297.81 182.667 297.81 184.8C297.81 186.433 297.377 187.983 296.51 189.45C295.643 190.917 294.36 192.1 292.66 193C290.96 193.9 288.927 194.35 286.56 194.35ZM325.023 159.05V161.95H315.323V194H311.823V161.95H302.073V159.05H325.023ZM349.15 194L340.5 179.4H334.05V194H330.55V159.05H341.05C344.95 159.05 347.9 159.983 349.9 161.85C351.933 163.717 352.95 166.167 352.95 169.2C352.95 171.733 352.216 173.9 350.75 175.7C349.316 177.467 347.183 178.617 344.35 179.15L353.35 194H349.15ZM334.05 176.55H341.1C343.833 176.55 345.883 175.883 347.25 174.55C348.65 173.217 349.35 171.433 349.35 169.2C349.35 166.9 348.683 165.133 347.35 163.9C346.016 162.633 343.916 162 341.05 162H334.05V176.55ZM375.596 194.35C372.362 194.35 369.429 193.6 366.796 192.1C364.162 190.567 362.079 188.45 360.546 185.75C359.046 183.017 358.296 179.933 358.296 176.5C358.296 173.067 359.046 170 360.546 167.3C362.079 164.567 364.162 162.45 366.796 160.95C369.429 159.417 372.362 158.65 375.596 158.65C378.862 158.65 381.812 159.417 384.446 160.95C387.079 162.45 389.146 164.567 390.646 167.3C392.146 170 392.896 173.067 392.896 176.5C392.896 179.933 392.146 183.017 390.646 185.75C389.146 188.45 387.079 190.567 384.446 192.1C381.812 193.6 378.862 194.35 375.596 194.35ZM375.596 191.3C378.196 191.3 380.529 190.7 382.596 189.5C384.662 188.3 386.296 186.583 387.496 184.35C388.696 182.083 389.296 179.467 389.296 176.5C389.296 173.533 388.696 170.933 387.496 168.7C386.296 166.467 384.662 164.75 382.596 163.55C380.529 162.35 378.196 161.75 375.596 161.75C372.996 161.75 370.662 162.35 368.596 163.55C366.529 164.75 364.896 166.467 363.696 168.7C362.496 170.933 361.896 173.533 361.896 176.5C361.896 179.467 362.496 182.083 363.696 184.35C364.896 186.583 366.529 188.3 368.596 189.5C370.662 190.7 372.996 191.3 375.596 191.3Z" fill="white"/>
</svg>
